<?xml version="1.0"?>
<svg xmlns="http://www.w3.org/2000/svg" xmlns:xlink="http://www.w3.org/1999/xlink" version="1.1" id="Capa_1" x="0px" y="0px" viewBox="0 0 512 512" style="enable-background:new 0 0 512 512;" xml:space="preserve" width="512px" height="512px"><g><g>
	<g>
		<path d="M301.019,81.779v284.309h-60.61v45.049h131.244l89.891,64.134v-64.134H512V81.779H301.019z M361.092,166.404h30.025    v30.001h-30.025V166.404z M421.142,326.513h-90.074v-30.001h30.037v-40.058h-30.037v-30.001h60.037v70.059h30.037V326.513z" data-original="#000000" class="active-path" data-old_color="#ffffff" fill="#ffffff"/>
	</g>
</g><g>
	<g>
		<path d="M0,36.73v299.357h50.457v50.005l70.088-50.005h150.474V36.73H0z M150.522,276.47h-30.025V246.47h30.025V276.47z     M150.51,197.484v18.949h-30.001v-46.73h15c11.953,0,21.679-9.725,21.679-21.678c0-11.953-9.725-21.678-21.679-21.678    c-11.953,0-21.677,9.725-21.677,21.678H83.831c0-28.496,23.182-51.679,51.678-51.679c28.496,0,51.679,23.184,51.679,51.679    C187.188,171.306,171.713,191.04,150.51,197.484z" data-original="#000000" class="active-path" data-old_color="#ffffff" fill="#ffffff"/>
	</g>
</g></g> </svg>
