<?xml version="1.0"?>
<svg xmlns="http://www.w3.org/2000/svg" xmlns:xlink="http://www.w3.org/1999/xlink" version="1.1" id="Capa_1" x="0px" y="0px" viewBox="0 0 512 512" style="enable-background:new 0 0 512 512;" xml:space="preserve" width="512px" height="512px" class=""><g><circle style="fill:#00C47A" cx="256" cy="256" r="256" data-original="#E30020" class="" data-old_color="#F64660"/><path style="fill:#00C47A" d="M512,256c0-0.616-0.019-1.228-0.023-1.844L403.973,146.152L73,330.82l181.156,181.156  c0.615,0.004,1.227,0.023,1.843,0.023C397.385,512,512,397.385,512,256z" data-original="#AA0018" class="active-path" data-old_color="#F64660"/><path style="fill:#E2DB11" d="M428.277,181.18c-13.402,0-24.305-10.903-24.305-24.305v-10.723H108.028v10.723  c0,13.402-10.903,24.305-24.305,24.305H73v149.64h10.723c13.402,0,24.305,10.903,24.305,24.305v10.723h295.945v-10.723  c0-13.402,10.903-24.305,24.305-24.305H439V181.18H428.277z" data-original="#00E890" class="" data-old_color="#E2DB12"/><path style="fill:#FFF700" d="M428.277,181.18c-13.402,0-24.305-10.903-24.305-24.305v-10.723H256v219.695h147.973v-10.723  c0-13.402,10.903-24.305,24.305-24.305H439V181.18H428.277z" data-original="#00C47A" class="" data-old_color="#00C47A"/><path style="fill:#FFFFFF;" d="M174.072,225.451c0-22.958,14.812-36.104,34.438-36.104s34.438,13.146,34.438,36.104  c0,23.144-14.812,36.104-34.438,36.104S174.072,248.594,174.072,225.451z M284.605,191.198h31.29l-88.501,129.604h-31.29  L284.605,191.198z M216.656,225.451c0-12.405-4.073-16.108-8.147-16.108c-4.073,0-8.147,3.703-8.147,16.108  s4.073,16.108,8.147,16.108C212.583,241.559,216.656,237.856,216.656,225.451z M269.053,286.55  c0-22.958,14.812-36.104,34.438-36.104c19.626,0,34.438,13.145,34.438,36.104c0,23.144-14.812,36.104-34.438,36.104  C283.865,322.654,269.053,309.693,269.053,286.55z M311.637,286.55c0-12.405-4.073-16.108-8.147-16.108  c-4.073,0-8.147,3.703-8.147,16.108s4.073,16.108,8.147,16.108S311.637,298.955,311.637,286.55z" data-original="#FFFFFF" class=""/><rect x="73" y="245.28" style="fill:#0773A4;" width="32.404" height="21.445" data-original="#0773A4"/><rect x="406.6" y="245.28" style="fill:#054D6E;" width="32.404" height="21.445" data-original="#054D6E"/><g>
	<polygon style="fill:#FFF1AB" points="256,278.911 315.896,191.198 284.605,191.198 256,233.089  " data-original="#FFF1AB" class=""/>
	<path style="fill:#FFF1AB" d="M303.491,250.446c-19.626,0-34.438,13.145-34.438,36.104c0,23.144,14.812,36.104,34.438,36.104   c19.626,0,34.438-12.96,34.438-36.104C337.928,263.591,323.116,250.446,303.491,250.446z M303.491,302.658   c-4.073,0-8.147-3.703-8.147-16.108s4.073-16.108,8.147-16.108c4.073,0,8.147,3.703,8.147,16.108   C311.637,298.955,307.564,302.658,303.491,302.658z" data-original="#FFF1AB" class=""/>
</g></g> </svg>
