<?xml version="1.0"?>
<svg xmlns="http://www.w3.org/2000/svg" xmlns:xlink="http://www.w3.org/1999/xlink" version="1.1" id="Capa_1" x="0px" y="0px" viewBox="0 0 512 512" style="enable-background:new 0 0 512 512;" xml:space="preserve" width="512px" height="512px" class=""><g><circle style="fill:#B5FB7D" cx="256" cy="256" r="256" data-original="#26406D" class="" data-old_color="#B6FB7E"/><path style="fill:#B5FB7D" d="M512,256c0-6.027-0.224-12.001-0.634-17.925L369.429,96.138L89.499,365.497l146.179,145.701  C242.383,511.725,249.159,512,256,512C397.385,512,512,397.385,512,256z" data-original="#11244F" class="" data-old_color="#FD8B61"/><path style="fill:#FFDE1F" d="M415.192,305.182H204.048l24.709-170.501c5.028-34.697,39.717-60.764,80.862-60.764l0,0  c41.146,0,75.834,26.066,80.862,60.764L415.192,305.182z" data-original="#FFDE1F" class="active-path" data-old_color="#F9C41E"/><path style="fill:#F9C41E;" d="M390.483,134.681c-5.024-34.664-39.651-60.711-80.745-60.762v231.263h105.454L390.483,134.681z" data-original="#F9C41E" class=""/><circle style="fill:#FFDE1F" cx="309.62" cy="350.63" r="43.45" data-original="#FFDE1F" class="active-path" data-old_color="#F9C41E"/><g>
	<path style="fill:#F9C41E;" d="M353.07,350.634c0-23.957-19.39-43.382-43.331-43.446v86.893   C333.68,394.017,353.07,374.591,353.07,350.634z" data-original="#F9C41E" class=""/>
	<rect x="178.75" y="296.3" style="fill:#F9C41E;" width="261.74" height="42.32" data-original="#F9C41E" class=""/>
</g><rect x="309.74" y="296.3" style="fill:#F9C41E" width="130.75" height="42.32" data-original="#FE9A35" class="" data-old_color="#FFDE1F"/><circle style="fill:#FF1B1B;" cx="159" cy="295" r="99" data-original="#FF1B1B"/><path style="fill:#D60000;" d="M258,295c0-54.628-44.247-98.921-98.857-98.998v197.996C213.753,393.921,258,349.628,258,295z" data-original="#D60000" class=""/><rect x="145.466" y="227.201" transform="matrix(-0.7071 -0.7071 0.7071 -0.7071 62.8251 616.0027)" style="fill:#FFFFFF;" width="27.05" height="135.579" data-original="#FFFFFF" class=""/><polygon style="fill:#E6E6E6" points="197.371,237.5 159.143,275.728 159.143,313.987 216.5,256.63 " data-original="#E6E6E6" class=""/><path style="fill:#FFFFFF;" d="M125.415,285.33c-13.186,0-23.915-10.728-23.915-23.915c0-13.187,10.728-23.915,23.915-23.915  s23.915,10.728,23.915,23.915C149.329,274.601,138.601,285.33,125.415,285.33z" data-original="#FFFFFF" class=""/><path style="fill:#E6E6E6" d="M192.585,352.5c-13.186,0-23.914-10.728-23.914-23.915s10.728-23.915,23.914-23.915  s23.915,10.728,23.915,23.915S205.771,352.5,192.585,352.5z" data-original="#E6E6E6" class=""/></g> </svg>
