<?xml version="1.0"?>
<svg xmlns="http://www.w3.org/2000/svg" xmlns:xlink="http://www.w3.org/1999/xlink" version="1.1" id="Capa_1" x="0px" y="0px" viewBox="0 0 512.001 512.001" style="enable-background:new 0 0 512.001 512.001;" xml:space="preserve" width="512px" height="512px" class=""><g><path style="fill:#8D96E5" d="M512,256c0,141.385-114.615,256-256,256S0,397.385,0,256S114.615,0,256,0S512,114.615,512,256z" data-original="#415A87" class="" data-old_color="#415A87"/><path style="fill:#8D96E5" d="M506.275,310C481.483,425.449,378.857,512,256,512S30.517,425.449,5.725,310H506.275z" data-original="#414669" class="" data-old_color="#8C95E5"/><path style="fill:#C3C837;" d="M106.999,297.974L69.648,169.712c-8.711-29.912,8.476-61.221,38.388-69.932l258.839-75.376  c5.303-1.544,10.853,1.503,12.397,6.805l50.327,172.821c1.544,5.303-1.503,10.853-6.805,12.397L119.396,304.78  C114.094,306.324,108.543,303.277,106.999,297.974z" data-original="#C3C837" class=""/><path style="fill:#EBF582;" d="M98.624,295.074L79.315,116.113c-0.592-5.491,3.379-10.423,8.87-11.015L402.361,71.2  c5.491-0.592,10.423,3.379,11.015,8.87l19.309,178.961c0.592,5.491-3.379,10.423-8.87,11.015l-314.177,33.898  C104.148,304.536,99.217,300.565,98.624,295.074z" data-original="#EBF582"/><path style="fill:#36322B" d="M48,405.25V135.714c0-11.046,8.954-20,20-20h365.524c11.046,0,20,8.954,20,20V410  c0,11.046-8.954,20-20,20H68.246C61.001,422.186,54.234,413.923,48,405.25z" data-original="#D29650" class="" data-old_color="#35312A"/><path style="fill:#B9783D" d="M464,251.429v42.857c0,5.523-4.477,10-10,10H284.476c-16.568,0-30-13.431-30-30v-2.857  c0-16.569,13.432-30,30-30H454C459.523,241.429,464,245.906,464,251.429z M92,187.667v-71.952H68c-11.046,0-20,8.954-20,20V405.25  c6.234,8.673,13.001,16.936,20.246,24.75h365.278c11.046,0,20-8.954,20-20v-20H294.333C182.588,390,92,299.412,92,187.667z" data-original="#B9783D" class=""/><path style="fill:#FFFF91;" d="M306.857,272.857c0,11.572-9.381,20.952-20.952,20.952s-20.952-9.381-20.952-20.952  s9.381-20.952,20.952-20.952S306.857,261.285,306.857,272.857z" data-original="#FFFF91"/><path style="fill:#FF4700" d="M485.47,408.748l-23.534,23.534l45.677,45.677c5.85,5.85,5.85,15.334,0,21.184l-8.471,8.471  c-5.849,5.849-15.332,5.849-21.182,0l-45.678-45.678l-23.534,23.534c-6.596,6.596-17.833,3.875-20.682-5.007l-37.784-117.805  c-2.445-7.624,4.752-14.821,12.376-12.376l117.805,37.784C489.345,390.914,492.066,402.152,485.47,408.748z" data-original="#F2C230" class="" data-old_color="#FF4F00"/><path style="fill:#FF4700" d="M352.669,352.723c2.446-2.465,6.163-3.669,9.99-2.441l117.805,37.784  c8.882,2.849,11.603,14.086,5.007,20.682l-23.534,23.534l45.677,45.677c5.85,5.85,5.85,15.334,0,21.183l-4.263,4.263  L352.669,352.723z" data-original="#FFE13C" class="active-path" data-old_color="#FF4F00"/></g> </svg>
