<?xml version="1.0"?>
<svg xmlns="http://www.w3.org/2000/svg" height="512px" version="1.1" viewBox="0 0 512.0009 512.0009" width="512px" class=""><g><g id="surface1">
<path d="M 194.207031 256 C 194.207031 285.253906 170.492188 308.964844 141.242188 308.964844 C 111.988281 308.964844 88.277344 285.253906 88.277344 256 C 88.277344 226.75 111.988281 203.035156 141.242188 203.035156 C 170.492188 203.035156 194.207031 226.75 194.207031 256 Z M 194.207031 256 " style="fill:#555556" data-original="#006DF0" class="active-path" data-old_color="#545455"/>
<path d="M 313.53125 95.339844 C 288.199219 109.96875 279.527344 142.363281 294.160156 167.695312 C 308.792969 193.023438 341.1875 201.695312 366.515625 187.0625 C 391.828125 172.445312 400.507812 140.085938 385.917969 114.757812 C 371.3125 89.414062 338.925781 80.703125 313.582031 95.308594 C 313.5625 95.316406 313.546875 95.328125 313.53125 95.339844 Z M 313.53125 95.339844 " style="fill:#555556" data-original="#006DF0" class="active-path" data-old_color="#545455"/>
<path d="M 366.496094 324.855469 C 341.148438 310.253906 308.765625 318.960938 294.160156 344.304688 C 279.554688 369.652344 288.261719 402.035156 313.609375 416.640625 C 338.933594 431.234375 371.292969 422.550781 385.914062 397.242188 C 400.546875 371.914062 391.875 339.519531 366.546875 324.886719 C 366.527344 324.875 366.511719 324.867188 366.496094 324.855469 Z M 366.496094 324.855469 " style="fill:#555556" data-original="#006DF0" class="active-path" data-old_color="#545455"/>
<path d="M 256 0 C 114.613281 0 0 114.613281 0 256 L 88.277344 256 C 88.277344 226.75 111.988281 203.035156 141.242188 203.035156 C 170.492188 203.035156 194.207031 226.75 194.207031 256 L 512 256 C 512 114.613281 397.386719 0 256 0 Z M 366.496094 187.144531 C 341.164062 201.777344 308.769531 193.105469 294.136719 167.777344 C 294.128906 167.757812 294.117188 167.742188 294.109375 167.726562 L 187.144531 229.519531 L 294.136719 167.726562 C 279.53125 142.378906 288.238281 109.992188 313.585938 95.390625 C 338.929688 80.785156 371.316406 89.492188 385.921875 114.839844 C 400.511719 140.164062 391.832031 172.523438 366.523438 187.144531 Z M 366.496094 187.144531 " style="fill:#81EEFD" data-original="#E6E7E8" class="" data-old_color="#00E5FF"/>
<path d="M 141.242188 308.964844 C 111.988281 308.964844 88.277344 285.253906 88.277344 256 L 0 256 C 0 397.386719 114.613281 512 256 512 C 397.386719 512 512 397.386719 512 256 L 194.207031 256 C 194.207031 285.253906 170.492188 308.964844 141.242188 308.964844 Z M 366.496094 324.855469 C 391.824219 339.488281 400.496094 371.882812 385.863281 397.210938 C 371.230469 422.542969 338.835938 431.214844 313.507812 416.582031 C 288.199219 401.960938 279.515625 369.601562 294.109375 344.277344 L 187.144531 282.484375 L 294.136719 344.277344 C 308.746094 318.933594 341.132812 310.234375 366.476562 324.84375 C 366.480469 324.847656 366.488281 324.851562 366.496094 324.855469 Z M 366.496094 324.855469 " style="fill:#81EEFD" data-original="#D1D3D4" class="" data-old_color="#80ECFB"/>
<path d="M 178.316406 247.171875 C 173.441406 247.171875 169.492188 243.21875 169.492188 238.34375 C 169.492188 235.191406 171.171875 232.277344 173.902344 230.699219 L 298.585938 151.253906 C 302.789062 148.785156 308.199219 150.199219 310.664062 154.402344 C 313.128906 158.609375 311.71875 164.015625 307.511719 166.484375 C 307.480469 166.503906 307.445312 166.523438 307.410156 166.542969 L 182.730469 245.988281 C 181.390625 246.769531 179.867188 247.175781 178.316406 247.171875 Z M 178.316406 247.171875 " style="fill:#555556" data-original="#006DF0" class="active-path" data-old_color="#545455"/>
<path d="M 302.953125 361.929688 C 301.40625 361.929688 299.882812 361.523438 298.539062 360.746094 L 173.859375 281.300781 C 169.652344 278.835938 168.242188 273.425781 170.710938 269.21875 C 173.152344 265.054688 178.488281 263.625 182.6875 266.011719 L 307.367188 345.460938 C 311.589844 347.898438 313.035156 353.296875 310.597656 357.519531 C 309.019531 360.25 306.109375 361.929688 302.953125 361.929688 Z M 302.953125 361.929688 " style="fill:#555556" data-original="#006DF0" class="active-path" data-old_color="#545455"/>
</g></g> </svg>
