<svg height="480pt" viewBox="0 0 480.05323 480" width="480pt" xmlns="http://www.w3.org/2000/svg"><g fill="#9bc9ff"><path d="m461.601562 208.027344h-37.601562v48l43.367188-28.914063c2.90625-1.933593 4.644531-5.195312 4.632812-8.6875 0-5.742187-4.65625-10.398437-10.398438-10.398437zm0 0"/><path d="m424 312.027344h32v64h-32zm0 0"/><path d="m8 440.027344h416v-48h-416zm0 0"/><path d="m216 8.027344c-83.921875 0-152 17.917968-152 40 .652344 5.789062 4.085938 10.894531 9.199219 13.679687 4.179687 2.863281 6.714843 7.574219 6.800781 12.640625v117.679688h272v-117.679688c.085938-5.066406 2.621094-9.777344 6.800781-12.640625 5.113281-2.785156 8.546875-7.890625 9.199219-13.679687 0-22.082032-68.078125-40-152-40zm0 0"/><path d="m88 240.027344c0 8.835937-7.164062 16-16 16s-16-7.164063-16-16c0-8.835938 7.164062-16 16-16s16 7.164062 16 16zm0 0"/></g><path d="m461.601562 200.027344h-29.601562v-16c-.042969-39.746094-32.253906-71.957032-72-72v-37.679688c.09375-2.46875 1.363281-4.742187 3.414062-6.113281 7.355469-4.164063 12.09375-11.773437 12.585938-20.207031 0-31.511719-80.488281-48.0000002-160-48.0000002s-160 16.4882812-160 48.0000002c.488281 8.425781 5.21875 16.027344 12.558594 20.191406 2.066406 1.371094 3.34375 3.652344 3.441406 6.128906v37.679688c-39.746094.042968-71.9570312 32.253906-72 72v264h48v8c0 13.253906 10.746094 24 24 24h16c13.253906 0 24-10.746094 24-24v-8h208v8c0 13.253906 10.746094 24 24 24h16c13.253906 0 24-10.746094 24-24v-8h48v-64h24c4.417969 0 8-3.582032 8-8v-64c0-4.417969-3.582031-8-8-8h-24v-43.722656l39.808594-26.535157c6.777344-4.484375 9.808594-12.890625 7.457031-20.671875-2.355469-7.78125-9.535156-13.09375-17.664063-13.070312zm-245.601562-184c93.167969 0 144 21.144531 144 32 0 1.894531-2.175781 4.566406-5.839844 7.199218-6.273437 4.363282-10.054687 11.480469-10.160156 19.121094v109.679688h-256v-109.679688c-.085938-7.671875-3.882812-14.828125-10.183594-19.199218-3.640625-2.554688-5.816406-5.226563-5.816406-7.121094 0-10.855469 50.832031-32 144-32zm-120 440c0 4.417968-3.582031 8-8 8h-16c-4.417969 0-8-3.582032-8-8v-8h32zm272 0c0 4.417968-3.582031 8-8 8h-16c-4.417969 0-8-3.582032-8-8v-8h32zm48-24h-400v-32h400zm32-112v48h-16v-48zm-32 64h-400v-200c.035156-30.914063 25.085938-55.964844 56-56v24h-24v16h24v16h-40v16h368v-16h-40v-16h24v-16h-24v-24c30.914062.035156 55.964844 25.085937 56 56zm46.929688-163.570313-30.929688 20.625v-25.054687h29.601562c1.078126-.023438 2.039063.675781 2.347657 1.710937.3125 1.03125-.105469 2.144531-1.019531 2.71875zm0 0" fill="#1e81ce"/><path d="m302.398438 55.859375c6.808593 1.371094 13.535156 3.105469 20.152343 5.199219 2.761719 1.046875 5.871094.488281 8.09375-1.449219 2.222657-1.941406 3.199219-4.945313 2.539063-7.820313-.660156-2.878906-2.847656-5.15625-5.695313-5.929687-7.1875-2.285156-14.496093-4.175781-21.886719-5.664063-2.851562-.699218-5.855468.214844-7.828124 2.382813-1.972657 2.171875-2.601563 5.246094-1.636719 8.015625.964843 2.773438 3.367187 4.792969 6.261719 5.265625zm0 0" fill="#1e81ce"/><path d="m107.023438 61.441406c.839843 0 1.675781-.132812 2.472656-.390625 9.441406-3.054687 45.023437-13.023437 106.503906-13.023437 18.375-.050782 36.734375.929687 55 2.925781 4.390625.5 8.355469-2.660156 8.851562-7.050781.496094-4.390625-2.660156-8.355469-7.050781-8.851563-18.863281-2.0625-37.824219-3.074219-56.800781-3.023437-62.078125 0-98.609375 9.65625-111.441406 13.808594-3.738282 1.214843-6.039063 4.96875-5.425782 8.855468.613282 3.882813 3.957032 6.746094 7.890626 6.75zm0 0" fill="#1e81ce"/><path d="m72 216.027344c-13.253906 0-24 10.746094-24 24s10.746094 24 24 24 24-10.746094 24-24-10.746094-24-24-24zm0 32c-4.417969 0-8-3.582032-8-8 0-4.417969 3.582031-8 8-8s8 3.582031 8 8c0 4.417968-3.582031 8-8 8zm0 0" fill="#1e81ce"/><path d="m112 232.027344h32v16h-32zm0 0" fill="#1e81ce"/></svg>