<?xml version="1.0"?>
<svg xmlns="http://www.w3.org/2000/svg" height="512px" viewBox="0 -32 512 512" width="512px" class=""><g><path d="m448.6875 36.167969c-31.414062-26.851563-62.988281-34.632813-64.316406-34.949219l-5.085938-1.21875-379.285156 176.738281v99.46875h15c20.125 0 36.5 16.371094 36.5 36.5 0 20.125-16.375 36.5-36.5 36.5h-15v99.019531h333.460938v-15.25c.117187-20.578124 16.894531-37.289062 37.5-37.289062 20.59375 0 37.363281 16.6875 37.5 37.25v15.289062h103.539062v-261.695312c0-79.542969-34.429688-125.671875-63.3125-150.363281zm-66.664062-4.347657c8.800781 2.984376 28.65625 11.027344 48.164062 28.007813 31.085938 27.066406 48.316406 64.515625 51.328125 111.472656h-398.8125zm-178.257813 169.480469c-3.472656 15.664063-17.464844 27.421875-34.164063 27.421875-16.695312 0-30.691406-11.757812-34.164062-27.421875zm233.023437 216.925781c-6.824218-30.042968-33.75-52.539062-65.828124-52.539062-32.078126 0-59.003907 22.496094-65.828126 52.539062h-275.132812v-40.726562c29.46875-6.820312 51.5-33.28125 51.5-64.792969s-22.03125-57.976562-51.5-64.796875v-46.609375h75.058594c3.765625 32.28125 31.265625 57.421875 64.542968 57.421875 33.277344 0 60.777344-25.140625 64.546876-57.421875h247.851562v216.925781zm0 0" data-original="#000000" class="active-path" data-old_color="#000000" fill="#1E81CE"/><path d="m398.039062 221.886719c-29.132812 0-52.835937 23.703125-52.835937 52.835937 0 29.136719 23.703125 52.839844 52.835937 52.839844 29.136719 0 52.839844-23.703125 52.839844-52.839844 0-29.132812-23.703125-52.835937-52.839844-52.835937zm0 75.675781c-12.59375 0-22.835937-10.246094-22.835937-22.839844 0-12.589844 10.246094-22.835937 22.835937-22.835937 12.59375 0 22.839844 10.246093 22.839844 22.835937 0 12.59375-10.246094 22.839844-22.839844 22.839844zm0 0" data-original="#000000" class="active-path" data-old_color="#000000" fill="#1E81CE"/><path d="m219.601562 287.257812c-29.132812 0-52.835937 23.703126-52.835937 52.839844 0 29.132813 23.703125 52.835938 52.835937 52.835938 29.136719 0 52.839844-23.703125 52.839844-52.835938 0-29.136718-23.703125-52.839844-52.839844-52.839844zm0 75.675782c-12.589843 0-22.835937-10.246094-22.835937-22.835938 0-12.59375 10.246094-22.839844 22.835937-22.839844 12.59375 0 22.839844 10.246094 22.839844 22.839844 0 12.589844-10.246094 22.835938-22.839844 22.835938zm0 0" data-original="#000000" class="active-path" data-old_color="#000000" fill="#1E81CE"/></g> </svg>
