<svg height="480pt" viewBox="0 -20 480.09475 480" width="480pt" xmlns="http://www.w3.org/2000/svg"><path d="m40.320312 400.046875h-32c-.160156 2.640625-.242187 5.28125-.242187 8-.367187 8.019531.035156 16.058594 1.199219 24h461.601562c.792969-7.976563 1.1875-15.984375 1.175782-24 0-2.71875-.078126-5.359375-.238282-8zm0 0" fill="#9bc9ff"/><path d="m312.054688 40.046875v-32h-128v32zm0 0" fill="#9bc9ff"/><path d="m480.054688 400.046875c-.050782-.574219-.164063-1.140625-.34375-1.6875-3.074219-75.46875-41.46875-145.097656-103.65625-187.96875v-186.34375c0-4.417969-3.582032-8-8-8h-48v-8c0-4.417969-3.582032-8-8-8h-128c-4.417969 0-8 3.582031-8 8v8h-64c-4.417969 0-8 3.582031-8 8v186.296875c-4.632813 3.199219-8.984376 6.335938-12.96875 9.519531-6.675782 5.296875-13.0625 10.949219-19.128907 16.9375l-14.398437-13.402343c-3.230469-3.003907-8.28125-2.832032-11.296875.394531l-21.808594 23.359375c-3.003906 3.230468-2.824219 8.285156.402344 11.296875l16.375 15.34375c-24.992188 36.882812-39.128907 80.042969-40.800781 124.566406-.4023442.859375-.4492192 1.84375-.125 2.734375-.152344 2.296875-.2500005 4.554688-.2500005 6.953125v5.816406c-.1601565 4.203125.0273437 8.410157.5585935 12.585938l.679688 6.398437c.414062 4.101563 3.878906 7.21875 8 7.199219h461.601562c4.109375 0 7.550781-3.113281 7.960938-7.199219.800781-8.128906 1.238281-16.472656 1.238281-24.800781 0-2.398437-.09375-4.734375-.207031-6.960937.082031-.339844.136719-.6875.167969-1.039063zm-288-384h112v16h-112zm-72 16h56v8c0 4.417969 3.582031 8 8 8h128c4.417968 0 8-3.582031 8-8v-8h40v168.113281c-.480469-.28125-.984376-.511718-1.464844-.800781-1.765625-1.007813-3.582032-1.921875-5.382813-2.878906-3.113281-1.671875-6.230469-3.320313-9.410156-4.847657-2.023437-.96875-4.070313-1.859374-6.109375-2.769531-3.039062-1.351562-6.082031-2.671875-9.167969-3.894531-2.152343-.855469-4.328125-1.65625-6.503906-2.449219-3.050781-1.113281-6.121094-2.164062-9.207031-3.144531-2.234375-.703125-4.464844-1.390625-6.714844-2.03125-3.128906-.894531-6.277344-1.703125-9.445312-2.472656-2.25-.535156-4.480469-1.085938-6.746094-1.601563-3.296875-.695312-6.617188-1.269531-9.945313-1.832031-2.148437-.359375-4.292969-.796875-6.46875-1.0625-3.691406-.519531-7.410156-.878906-11.136719-1.222656-1.832031-.167969-3.65625-.417969-5.496093-.546875-2.921875-.199219-5.863281-.246094-8.800781-.34375v-16.214844h8c4.417968 0 8-3.582031 8-8s-3.582032-8-8-8h-32c-4.417969 0-8 3.582031-8 8s3.582031 8 8 8h8v16.265625c-2.9375.09375-5.878907.144531-8.800782.34375-1.839844.128906-3.65625.375-5.488281.542969-3.726563.34375-7.453125.703125-11.152344 1.222656-2.160156.296875-4.285156.699219-6.398437 1.058594-3.34375.558593-6.679688 1.144531-9.992188 1.847656-2.246094.472656-4.472656 1.015625-6.695312 1.550781-3.199219.800782-6.359375 1.601563-9.503906 2.488282-2.230469.640624-4.449219 1.3125-6.65625 2.015624-3.121094.992188-6.207032 2.046876-9.289063 3.199219-2.152344.800781-4.296875 1.601563-6.398437 2.402344-3.121094 1.230469-6.199219 2.566406-9.273438 3.933594-2.007812.898437-4 1.777343-6.007812 2.730469-3.199219 1.542968-6.398438 3.199218-9.550782 4.910156-1.753906.945312-3.527344 1.832031-5.257812 2.816406-.488282.273438-.992188.511719-1.480469.800781zm-62.847657 234.808594-15.609375-14.625 10.929688-11.6875 14.230468 13.28125c3.210938 2.992187 8.234376 2.839843 11.257813-.34375 7.167969-7.566407 14.863281-14.617188 23.023437-21.097657 4.671876-3.726562 9.726563-7.390624 15.433594-11.199218 36.632813-24.285156 79.628906-37.203125 123.582032-37.136719 5.519531 0 11.011718.199219 16.480468.601563 38.25 2.761718 75.144532 15.351562 107.105469 36.550781 57.867187 38.453125 94.652344 101.546875 99.613281 170.847656h-16c-5.625-73.453125-49.707031-138.441406-115.875-170.832031-66.167968-32.386719-144.53125-27.339844-205.996094 13.273437-3.464843 2.511719-4.339843 7.308594-1.984374 10.882813 2.355468 3.574218 7.109374 4.65625 10.785156 2.460937 56.554687-37.414062 128.660156-42.195312 189.664062-12.585937s101.851563 89.222656 107.445313 156.800781h-414.4375c2.835937-41.332031 17.164062-81.050781 41.367187-114.679687 2.351563-3.261719 1.917969-7.761719-1.015625-10.511719zm406.304688 157.191406h-447.058594c-.402344-3.363281-.535156-6.757813-.398437-10.144531v-5.855469h448c0 5.351563-.183594 10.710937-.542969 16zm0 0" fill="#1e81ce"/></svg>