<svg height="480pt" viewBox="-136 0 480 480" width="480pt" xmlns="http://www.w3.org/2000/svg"><path d="m48 8h112c8.835938 0 16 7.164062 16 16v24c0 8.835938-7.164062 16-16 16h-112c-8.835938 0-16-7.164062-16-16v-24c0-8.835938 7.164062-16 16-16zm0 0" fill="#9bc9ff"/><path d="m8 192v248c0 17.671875 14.328125 32 32 32h128c17.671875 0 32-14.328125 32-32v-248c0-4.964844-.230469-9.921875-.6875-14.863281-.601562-6.402344-30.273438-12-65.878906-15.816407-18.890625-2.023437-42.65625 15.527344-61.433594 14.679688-34.617188-1.601562-60-19.9375-60.800781-16-2.136719 10.53125-3.210938 21.253906-3.199219 32zm0 0" fill="#9bc9ff"/><path d="m195.070312 127.375-24.207031-58.09375c8.03125-4.0625 13.105469-12.28125 13.136719-21.28125v-24c0-13.253906-10.746094-24-24-24h-112c-13.253906 0-24 10.746094-24 24v24c.03125 9 5.105469 17.21875 13.136719 21.28125l-24.214844 58.101562c-8.554687 20.46875-12.9453125 42.433594-12.921875 64.617188v248c.0273438 22.082031 17.917969 39.972656 40 40h128c22.082031-.027344 39.972656-17.917969 40-40v-248c.023438-22.1875-4.371094-44.15625-12.929688-64.625zm-155.070312-103.375c0-4.417969 3.582031-8 8-8h112c4.417969 0 8 3.582031 8 8v24c0 4.417969-3.582031 8-8 8h-112c-4.417969 0-8-3.582031-8-8zm13.335938 48h101.328124l25.601563 61.535156c4.554687 11.089844 7.777344 22.679688 9.597656 34.527344-11.449219-.28125-22.707031-3.007812-33.015625-8-7.136718-3.414062-14.792968-5.617188-22.65625-6.511719-11.164062-.027343-22.234375 2.035157-32.640625 6.089844-8.585937 3.382813-17.714843 5.179687-26.941406 5.304687-6.019531-.90625-11.871094-2.707031-17.351563-5.351562-11.132812-5.1875-23.113281-8.300781-35.363281-9.195312 1.601563-5.738282 3.535157-11.378907 5.792969-16.894532zm138.664062 368c0 13.253906-10.746094 24-24 24h-128c-13.253906 0-24-10.746094-24-24v-248c.042969-8.582031.816406-17.148438 2.304688-25.601562 11.445312.28125 22.703124 3.011718 33.007812 8 7.132812 3.417968 14.789062 5.617187 22.648438 6.511718 11.160156.039063 22.226562-2.023437 32.625-6.078125 8.585937-3.402343 17.722656-5.199219 26.957031-5.3125 6.023437.902344 11.875 2.707031 17.359375 5.351563 11.824218 5.570312 24.640625 8.714844 37.699218 9.25.984376 0 2.007813-.082032 3.007813-.128906.132813 2.6875.390625 256.007812.390625 256.007812zm0 0" fill="#1e81ce"/></svg>