<svg xmlns="http://www.w3.org/2000/svg" height="600pt" version="1.1" viewBox="-130 0 600 600" width="600pt">
<g id="surface1">
<path d="M 310 0 L 30 0 C 13.433594 0 0 13.433594 0 30 L 0 570 C 0 586.566406 13.433594 600 30 600 L 310 600 C 326.566406 600 340 586.566406 340 570 L 340 30 C 340 13.433594 326.566406 0 310 0 Z M 244.828125 20 L 240.550781 30 L 99.449219 30 L 95.171875 20 Z M 320 570 C 320 575.523438 315.523438 580 310 580 L 30 580 C 24.476562 580 20 575.523438 20 570 L 20 30 C 20 24.476562 24.476562 20 30 20 L 73.40625 20 L 83.671875 43.941406 C 85.242188 47.617188 88.863281 50 92.859375 50 L 247.140625 50 C 251.136719 50 254.757812 47.617188 256.328125 43.941406 L 266.59375 20 L 310 20 C 315.523438 20 320 24.476562 320 30 Z M 320 570 " style=" stroke:none;fill-rule:nonzero;fill:rgb(0%,0%,0%);fill-opacity:1;" />
<path d="M 100 360 C 100 365.523438 104.476562 370 110 370 C 115.523438 370 120 365.523438 120 360 L 120 260 C 120 246.570312 111.078125 234.78125 98.160156 231.128906 C 96.191406 230.386719 94.105469 230 92 230 L 68 230 C 65.894531 230 63.808594 230.386719 61.839844 231.128906 C 48.921875 234.78125 40 246.570312 40 260 L 40 360 C 40 365.523438 44.476562 370 50 370 C 55.523438 370 60 365.523438 60 360 L 60 310 L 100 310 Z M 60 290 L 60 260 C 60.097656 255.238281 63.378906 251.136719 68 250 L 91.058594 249.820312 C 91.527344 250.019531 92.007812 250.1875 92.5 250.308594 C 96.917969 251.449219 100.003906 255.4375 100 260 L 100 290 Z M 60 290 " style=" stroke:none;fill-rule:nonzero;fill:rgb(0%,0%,0%);fill-opacity:1;" />
<path d="M 140 370 C 145.523438 370 150 365.523438 150 360 L 150 310 L 182 310 C 183.480469 310.023438 184.960938 309.875 186.410156 309.550781 C 200.515625 307.546875 210 299.226562 210 288.890625 L 210 260 C 210 246.570312 201.078125 234.78125 188.160156 231.128906 C 186.191406 230.386719 184.105469 230 182 230 L 140 230 C 134.476562 230 130 234.476562 130 240 L 130 360 C 130 365.523438 134.476562 370 140 370 Z M 150 250 L 181.058594 249.820312 C 181.527344 250.019531 182.007812 250.1875 182.5 250.308594 C 186.917969 251.449219 190.003906 255.4375 190 260 L 190 287.546875 C 187.757812 288.867188 185.257812 289.679688 182.671875 289.921875 C 182.453125 289.976562 182.226562 290.003906 182 290 L 150 290 Z M 150 250 " style=" stroke:none;fill-rule:nonzero;fill:rgb(0%,0%,0%);fill-opacity:1;" />
<path d="M 278.160156 231.128906 C 276.191406 230.386719 274.105469 230 272 230 L 230 230 C 224.476562 230 220 234.476562 220 240 L 220 360 C 220 365.523438 224.476562 370 230 370 C 235.523438 370 240 365.523438 240 360 L 240 310 L 272 310 C 273.480469 310.023438 274.960938 309.875 276.410156 309.550781 C 290.515625 307.546875 300 299.226562 300 288.890625 L 300 260 C 300 246.570312 291.078125 234.78125 278.160156 231.128906 Z M 280 287.546875 C 277.757812 288.867188 275.257812 289.679688 272.671875 289.921875 C 272.453125 289.976562 272.226562 290.003906 272 290 L 240 290 L 240 250 L 271.058594 249.820312 C 271.527344 250.019531 272.007812 250.1875 272.5 250.308594 C 276.917969 251.449219 280.003906 255.4375 280 260 Z M 280 287.546875 " style=" stroke:none;fill-rule:nonzero;fill:rgb(0%,0%,0%);fill-opacity:1;" />
<path d="M 260 550 L 80 550 C 74.476562 550 70 554.476562 70 560 C 70 565.523438 74.476562 570 80 570 L 260 570 C 265.523438 570 270 565.523438 270 560 C 270 554.476562 265.523438 550 260 550 Z M 260 550 " style=" stroke:none;fill-rule:nonzero;fill:rgb(0%,0%,0%);fill-opacity:1;" />
</g>
</svg>